#!OML:ASF E:/inclinewalkrobotboard/Project1/Captureday1/Session1/subject1.ASF
:FULLY-SPECIFIED
:DEGREES
51
root 0 0 0 1.053944467879361 -3.677711877530947 1.863156286066193
lowerback 11.924816300028116 0.8573202399222153 -0.05872152007952022
upperback -4.224888581284645 1.0870732371782676 -0.5569024810259922
thorax -11.298724843545136 0.49634003031255985 -0.8004654437646386
lowerneck -5.670270170432289 1.4465746671405642 4.565359075672949
upperneck 18.082835024816784 2.8828683284307015 -8.317772815922536
head 6.589569394152958 1.047817438414475 -3.221238025952049
rclavicle -9.058665310045833E-16 -3.431515275414412E-16
rhumerus 20.158868754623164 14.70828638420964 -48.1405004598954
rradius 72.54419717625194
rwrist 26.737547673818117
rhand -34.758871285938305 -57.39741169030945
rfingers 7.125020000000038
rthumb -7.920056543291849 -87.31219759800987
lclavicle 8.916107292791233E-16 -1.7505047985041914E-15
lhumerus 20.849928287536443 -12.749287238555471 45.283861204736894
lradius 69.94451982017405
lwrist -22.275314859729637
lhand -44.77593401354005 -69.73160696581186
lfingers 7.1250200000000286
lthumb -17.56730638836207 -40.53351360594804
rfemur -24.894371363137335 -2.2123121391961593 17.20835623700626
rtibia 54.048839260025034
rfoot -29.079306835711307 -16.733057160570468
rtoes -17.671716653172037
lfemur -26.679832894383566 2.405889451432375 -18.294907112402097
ltibia 54.16787679007364
lfoot -31.061074965493773 -3.52925021552023
ltoes -19.62738763226195
52
root 0 0 0 1.054439117936302 -3.676780320913883 1.8632727225440449
lowerback 11.924886462699927 0.8574067118413787 -0.058852555345631496
upperback -4.225152506173053 1.0871541624987537 -0.5570680264915084
thorax -11.299058392341328 0.49638138953439476 -0.800595769771829
lowerneck -5.671655807235223 1.4467215896739782 4.565175097966342
upperneck 18.0836129764178 2.8829852479735374 -8.317168117653814
head 6.59005417047872 1.0478666203581595 -3.2210062850219563
rclavicle -9.144648628785333E-16 -3.3436697786822578E-16
rhumerus 20.159683851447397 14.708284252840905 -48.140044711090965
rradius 72.54468099320715
rwrist 26.73800232202383
rhand -34.758951315837955 -57.397673466571064
rfingers 7.125020000000038
rthumb -7.920187102134941 -87.31179950073667
lclavicle 8.866220339897199E-16 -1.7440826795176794E-15
lhumerus 20.85057311511595 -12.750114566044381 45.28387017634531
lradius 69.94508663688977
lwrist -22.27487705409162
lhand -44.776106853825844 -69.73114220906983
lfingers 7.1250200000000286
lthumb -17.567550872792275 -40.53311916314835
rfemur -24.893676958132573 -2.211804447546307 17.2074348898143
rtibia 54.04908057845493
rfoot -29.078737237110843 -16.7340478967448
rtoes -17.67234351134708
lfemur -26.68072875751632 2.406158226615153 -18.294908823918117
ltibia 54.16481847351705
lfoot -31.06317990882907 -3.526358448238915
ltoes -19.629127143189272
53
root 0 0 0 1.0538534789002045 -3.677885684027469 1.8631426690666926
lowerback 11.924797539039986 0.8573061029316039 -0.05868482014664397
upperback -4.224831095511931 1.087061082526421 -0.5568737965693586
thorax -11.298647828312191 0.4963338759984832 -0.8004497416940866
lowerneck -5.669984591993888 1.4465413862692351 4.565417738283215
upperneck 18.082670860536226 2.88283963301114 -8.3179212856647
head 6.589468402353684 1.0478052898903343 -3.221298099074501
rclavicle -9.032422281581489E-16 -3.4357166231765705E-16
rhumerus 20.159209913452717 14.70868969877521 -48.14041205420859
rradius 72.54441855625146
rwrist 26.73741168099768
rhand -34.758286741835924 -57.396518426549214
rfingers 7.125020000000038
rthumb -7.919488214310389 -87.31128569695
lclavicle 8.951641761189998E-16 -1.7505544102046794E-15
lhumerus 20.850348838919295 -12.74996457455602 45.28329497715801
lradius 69.94492350647866
lwrist -22.275305187358573
lhand -44.77564281908205 -69.72986138182131
lfingers 7.1250200000000286
lthumb -17.56701545072167 -40.531722975132695
rfemur -24.894395836298973 -2.212277103136 17.208260385704108
rtibia 54.048677394819975
rfoot -29.079465392501806 -16.73306111349308
rtoes -17.67200946413964
lfemur -26.67876349848459 2.405805776757955 -18.294875456353537
ltibia 54.16603282214172
lfoot -31.061725256602013 -3.5286569524776685
ltoes -19.62946297112669
54
root 0 0 0 1.053580386902456 -3.6783748215963774 1.8630828833078599
lowerback 11.92479263960206 0.8572580518301408 -0.058572458843959785
upperback -4.224661437408708 1.0870192884344294 -0.5567733539519387
thorax -11.298449570945362 0.49631185926742527 -0.8003920700710487
lowerneck -5.669016370182336 1.4464041206610263 4.565525304785553
upperneck 18.08207720388137 2.8826913839936914 -8.318322321641343
head 6.589112432583872 1.0477451875376742 -3.2214562112689116
rclavicle -9.015737953498281E-16 -3.429868002464608E-16
rhumerus 20.159425414781158 14.70899733472045 -48.14032377263058
rradius 72.54457922302012
rwrist 26.737282826049764
rhand -34.75777444451842 -57.39574043455093
rfingers 7.125020000000038
rthumb -7.9189994968834245 -87.31052095445213
lclavicle 8.964889481021307E-16 -1.7499728620980136E-15
lhumerus 20.850570762393872 -12.750446660841238 45.28287403122597
lradius 69.94529587946664
lwrist -22.275385890453542
lhand -44.77542735501053 -69.72837551295001
lfingers 7.1250200000000286
lthumb -17.566807566697708 -40.530226993801804
rfemur -24.894372331296395 -2.2122985308642074 17.208346732171798
rtibia 54.048728184533466
rfoot -29.079395413212275 -16.732996251604174
rtoes -17.67193417678979
lfemur -26.678445526534738 2.405807382114959 -18.29482735943427
ltibia 54.16679692342168
lfoot -31.061265653149363 -3.529012885485005
ltoes -19.6296411281912
55
root 0 0 0 1.0532453464020937 -3.6789897114419503 1.8630035611245868
lowerback 11.924784439474706 0.8571982946003593 -0.058434886791859264
upperback -4.224450076161596 1.086967323917224 -0.5566472676812364
thorax -11.298201512861562 0.49628452604308765 -0.8003178593550868
lowerneck -5.6678339341473745 1.4462355903159048 4.565651131063978
upperneck 18.081349667335587 2.882509870056726 -8.318807252214508
head 6.588676959713687 1.047671684213364 -3.2216467651332
rclavicle -8.997985167471453E-16 -3.4351693280518846E-16
rhumerus 20.15988908273498 14.709527772805645 -48.1401144266005
rradius 72.54489039562964
rwrist 26.737165284253006
rhand -34.75698868166717 -57.39471049556138
rfingers 7.125020000000038
rthumb -7.918247450832036 -87.3094783390864
lclavicle 8.987248685501185E-16 -1.7503007767323882E-15
lhumerus 20.850911151298188 -12.751012965474686 45.28228492407976
lradius 69.94569982782016
lwrist -22.275475117387664
lhand -44.77514926546443 -69.72670018740908
lfingers 7.125020000000029
lthumb -17.566539889408432 -40.528520589274336
rfemur -24.894393445033113 -2.2122958928330583 17.208371866786965
rtibia 54.04879558042562
rfoot -29.079399914355022 -16.73296003597502
rtoes -17.67182946206497
lfemur -26.678051212151196 2.4059187816607475 -18.294806410423362
ltibia 54.166839116713824
lfoot -31.061009700228023 -3.52895923016887
ltoes -19.630119704410404
56
root 0 0 0 1.0539312384788673 -3.6777084552643293 1.8631609122886723
lowerback 11.924864583574582 0.8573180016529321 -0.05864417555655868
upperback -4.224833702369679 1.0870771553000125 -0.556882160046266
thorax -11.298678691065277 0.4963410118875037 -0.8004882262710598
lowerneck -5.66988434049209 1.446474387035952 4.565385422594995
upperneck 18.082531149258728 2.8827234277523814 -8.317918208319057
head 6.589404649095701 1.0477601868846393 -3.2213025434930485
rclavicle -9.102087946636771E-16 -3.3466958424158414E-16
rhumerus 20.160408318492422 14.70916488831465 -48.13976406529503
rradius 72.54517219940699
rwrist 26.73773515683999
rhand -34.7576073216484 -57.395750677653616
rfingers 7.125020000000038
rthumb -7.918895798077556 -87.30986573688693
lclavicle 8.91612744728258E-16 -1.743984631935495E-15
lhumerus 20.851267857667153 -12.751332516928823 45.28275558036798
lradius 69.94592204682526
lwrist -22.27499307130592
lhand -44.77555478004062 -69.72768555589423
lfingers 7.1250200000000286
lthumb -17.567011821515006 -40.52960285528936
rfemur -24.89369906299335 -2.211795131998827 17.207448124761502
rtibia 54.04906332510464
rfoot -29.07880920201513 -16.733982657682553
rtoes -17.6724046238947
lfemur -26.67952335246784 2.40619479500106 -18.2948397544205
ltibia 54.16414923917467
lfoot -31.063103244926456 -3.526150973435185
ltoes -19.63096813084395
